# xmcd CD database file
#
# Track frame offsets:
#	150
#	13733
#	26747
#	39153
#	53174
#	65868
#	79814
#	90675
#	103045
#	117582
#	127866
#	139200
#	151417
#	164168
#	177335
#	188093
#	201594
#	214793
#	228578
#	239940
#
# Disc length: 3326 seconds
#
# Revision: 1
# Processed by: cddbd v1.5.2PL0 Copyright (c) Steve Scherf et al.
# Submitted via: CDex 1.70beta2
#
DISCID=2d0cfc14
DTITLE=Various Artist - Love Songs Vol 2
DYEAR=1970
DGENRE=Country
TTITLE0=Whispering Pine
TTITLE1=North To Alaska
TTITLE2=High Noon
TTITLE3=Greenfields
TTITLE4=500 Miles
TTITLE5=Tom Dooley
TTITLE6=Red River Valley
TTITLE7=Your Cheating Heart
TTITLE8=Don't Worry
TTITLE9=The River Of No Return
TTITLE10=Rose Rose I Love You
TTITLE11=Stand By Your Man
TTITLE12=Detroit City
TTITLE13=The Hanging Tree
TTITLE14=He'll Have To Go
TTITLE15=Blowin' In The Wind
TTITLE16=Jambalaya
TTITLE17=The Yellow Rose Of Texas
TTITLE18=The Ballad Of The Green Berets
TTITLE19=Kiss An Angel Good Morning
EXTD=YEAR: 1970
EXTT0=
EXTT1=
EXTT2=
EXTT3=
EXTT4=
EXTT5=
EXTT6=
EXTT7=
EXTT8=
EXTT9=
EXTT10=
EXTT11=
EXTT12=
EXTT13=
EXTT14=
EXTT15=
EXTT16=
EXTT17=
EXTT18=
EXTT19=
PLAYORDER=
